<svg xmlns:dc="http://purl.org/dc/elements/1.1/" xmlns:cc="http://creativecommons.org/ns#" xmlns:rdf="http://www.w3.org/1999/02/22-rdf-syntax-ns#" xmlns:svg="http://www.w3.org/2000/svg" xmlns="http://www.w3.org/2000/svg" xmlns:xlink="http://www.w3.org/1999/xlink" id="svg133636" viewBox="0 0 1024 768" height="768px" width="1024px" version="1.1">
  <metadata id="metadata133642">
    <rdf:rdf>
      <cc:work rdf:about="">
        <dc:format>image/svg+xml</dc:format>
        <dc:type rdf:resource="http://purl.org/dc/dcmitype/StillImage"></dc:type>
      </cc:work>
    </rdf:rdf>
  </metadata>
  <defs id="defs133640"></defs>
  <linearGradient spreadMethod="pad" y2="30%" x2="-10%" y1="120%" x1="30%" id="3d_gradient2-logo-6c326bb4-0d61-4974-9532-7d197f5dd759">
    <stop id="stop133617" stop-opacity="1" stop-color="#ffffff" offset="0%"></stop>
    <stop id="stop133619" stop-opacity="1" stop-color="#000000" offset="100%"></stop>
  </linearGradient>
  <linearGradient gradientTransform="rotate(-30)" spreadMethod="pad" y2="30%" x2="-10%" y1="120%" x1="30%" id="3d_gradient3-logo-6c326bb4-0d61-4974-9532-7d197f5dd759">
    <stop id="stop133622" stop-opacity="1" stop-color="#ffffff" offset="0%"></stop>
    <stop id="stop133624" stop-opacity="1" stop-color="#cccccc" offset="50%"></stop>
    <stop id="stop133626" stop-opacity="1" stop-color="#000000" offset="100%"></stop>
  </linearGradient>
  <g id="logo-group">
    <image xlink:href="" id="container" x="272" y="144" width="480" height="480" style="display: none;" transform="translate(0 0)"></image>
    <g id="logo-center" transform="translate(0 0)">
      <image xlink:href="" id="icon_container" style="display: none;" x="0" y="0"></image>
      <g id="slogan" style="font-style:normal;font-weight:400;font-size:32px;line-height:1;font-family:Lora;font-variant-ligatures:none;text-align:center;text-anchor:middle" transform="translate(0 0)"></g>
      <g id="title" style="font-style:normal;font-weight:normal;font-size:72px;line-height:1;font-family:'Brandmark Script 1 Shadow';font-variant-ligatures:normal;text-align:center;text-anchor:middle" transform="translate(0 0)">
        <g id="path133645" aria-label="C" transform="translate(0 337.82548633) translate(313.4234686399998 4.356863179999991) scale(2.22) translate(-424.33006 39.498081)"> <path class="c1" d="M88.81466,117.48351c1.94434,1.44043,3.38477,2.08838,6.84082,2.08838 c3.60059,0,7.05664-2.01611,8.49707-3.3125c0.07227-0.07178,0.14355-0.07178,0.21582-0.14404 c0.07227-0.07178,0-0.14404,0.07227-0.21582c0.07227-0.07227,0.14355-0.07227,0.21582-0.07227c0.21582,0,0-0.14404,0.07227-0.14404 c0.07129-0.07178,0.14355-0.07178,0.14355-0.07178c0.07227,0,0.14453-0.07227,0.14453-0.07227 c0.07129-0.07178,0.14355-0.14355,0.21582-0.2876c1.51172-1.51221,4.10449-4.82471,3.74414-7.99268 c0-0.14404-0.07227-0.57617-0.28809-0.50439c-0.14355,0-0.14355,0.21631-0.14355,0.36035 c-0.79199,3.38428-3.24023,5.49298-5.61719,7.22101c-1.94336,1.43994-4.82422,2.52002-7.12793,2.52002 c-1.5127,0-3.02441-0.43164-3.45703-0.86377c-0.07129-0.14404-0.28711-0.14404-0.43164-0.21631 c-0.21582-0.07178-1.08008-0.79199-1.51172-1.2959c-0.43262-0.50391-0.7207-1.15234-0.7207-1.22412c0-0.07227,0-0.07227,0-0.14404 l0.07227-0.07178c-0.07227-0.07227-0.14355-0.21631-0.14355-0.28809c-0.07227-0.14404-0.2168-0.50439-0.2168-0.64844 c-0.21582-0.50391-0.35938-1.43994-0.35938-2.01611c-0.14453-2.08789,0.35938-5.49298,2.5918-9.81329 c0.07227-0.07178,0.21582-0.57617,0.28809-0.57617c0.21582,0,0.21582-0.35986,0.28809-0.50391 c0.07227-0.21582,0.14355-0.57617,0.36035-0.72021c0.14355-0.14404,0.14355-0.21582,0.21582-0.35986 c0.07227-0.07178,0.07227-0.14404,0.14355-0.14404c0.07227-0.07178,0.07227-0.21582,0.07227-0.28809 c0-0.14404,0-0.07178,0.14453-0.14404c0.07129-0.14404,0.14355-0.28809,0.21582-0.43213 c0.07129-0.07178,0.14355-0.14355,0.21582-0.14355v-0.36035c0.28809,0,0.21582-0.28809,0.28809-0.43213 c0.07227-0.07178,0.28809,0,0.28809-0.14404c0-0.21582-0.07227-0.21582,0.14355-0.2876 c0.28809-0.14404,0.50391-0.57617,0.64844-0.79248c1.00781-1.51172,2.30371-2.80811,3.52832-4.104 c2.13672-2.19751,4.98376-4.21552,7.60394-4.86517c0.43866-0.10535,0.8432-0.19586,1.23065-0.28064 c-0.2403,0.3512-0.46765,0.71155-0.6535,1.09637c-0.56531,1.17059-0.84601,2.4743-1.05219,3.04114 c-0.2168,1.0083-0.57617,3.16846-0.07227,3.24023c0.21582,0,0.71973-0.64795,1.2959-1.22412 c1.15234-1.08008,2.66406-2.52002,2.87988-2.66406c0.07227,0,0.28809-0.07227,0.36035-0.14404 c0-0.14404,0.07227-0.14404,0.14453-0.21582c0.21582-0.14404,0.43164-0.36035,0.5752-0.57617 c0-0.07227,0.07227-0.21631,0.14453-0.28809c0.14355,0,0.21582,0,0.28809-0.07227c0.36035-0.50391,2.52051-1.94385,2.95215-2.30371 c0.71973-0.79248,0.79199-1.65625,0.21582-2.88037c-0.43164-1.08008-1.58398-2.01611-1.94434-2.37646 c-0.35938-0.28809-0.57617-0.50391-1.00781-0.71973c-0.50391-0.21631-0.71973-0.07227-0.79199,0 c-0.07227,0.14404-0.07227,0.43164-0.14355,1.00781c-0.0744,0.81537-0.48151,1.55768-1.01953,2.29553 c-0.86072-0.71667-1.7204-1.36218-2.58105-2.00745c-0.43262-0.28809-0.86426-0.50391-1.36816-0.64795 c-2.95215-0.50391-5.97656,1.43994-7.99316,2.95215c-2.72327,2.0824-5.62439,5.25629-7.92346,9.1499 c-4.06091,6.87732-4.91528,14.10754-4.07007,18.7193C85.98055,113.51427,86.8912,115.96471,88.81466,117.48351z" transform="translate(339.091244 -118.992309)" stroke-width="0" stroke-linejoin="miter" stroke-miterlimit="2" fill="#e63b0e" stroke="#e63b0e"></path> <linearGradient id="8c71430e-c496-4580-b35b-990b6aac7950" gradientUnits="userSpaceOnUse" x1="112.52285" y1="92.38638" x2="101.2373" y2="84.85226"> <stop offset="0.53252" style="stop-color:#000000"></stop> <stop offset="0.6664" style="stop-color:#000000;stop-opacity:0.68377"></stop> <stop offset="0.9559" style="stop-color:#000000;stop-opacity:0"></stop> </linearGradient> <path class="highlight" fill="url(#8c71430e-c496-4580-b35b-990b6aac7950)" d="M97.92583,90.35966c0.20416,0.13385,0.40723,0.27344,0.61108,0.41064 c2.12854-2.16949,4.93958-4.15155,7.53113-4.79407c0.44214-0.1062,0.83948-0.18793,1.21613-0.26007 c0.68713-1.00922,1.53064-1.90588,2.18573-2.80438c-0.86066-0.71667-1.7204-1.36212-2.58099-2.00739 c-0.43262-0.28809-0.86426-0.50391-1.36816-0.64795c-2.95215-0.50391-5.97656,1.43994-7.99316,2.95215 c-1.1496,0.87909-2.32922,1.96295-3.48358,3.20306C94.989,88.06999,96.27538,89.27757,97.92583,90.35966z" transform="translate(339.091244 -118.992309)" stroke-width="0" stroke-linejoin="miter" stroke-miterlimit="2" opacity="0.63"></path> <radialGradient id="547f0a76-9887-4113-9a3c-e227c8127ee0" cx="124.99783" cy="80.01905" r="60.15287" gradientUnits="userSpaceOnUse" transform="translate(339.091244 -118.992309)"> <stop offset="0" style="stop-color:#000000;stop-opacity:0"></stop> <stop offset="0.58809" style="stop-color:#000000;stop-opacity:0"></stop> <stop offset="0.92857" style="stop-color:#000000"></stop> </radialGradient> <path class="highlight" fill="url(#547f0a76-9887-4113-9a3c-e227c8127ee0)" d="M92.34303,115.99211c-0.07129-0.14404-0.28711-0.14404-0.43164-0.21631 c-0.21582-0.07178-1.08008-0.79199-1.51172-1.2959c-0.43262-0.50391-0.7207-1.15234-0.7207-1.22412c0-0.07227,0-0.07227,0-0.14404 l0.07227-0.07178c-0.07227-0.07227-0.14355-0.21631-0.14355-0.28809c-0.07227-0.14404-0.2168-0.50439-0.2168-0.64844 c-0.21582-0.50391-0.35938-1.43994-0.35938-2.01611c-0.14453-2.08789,0.35938-5.49298,2.5918-9.81329 c0.07227-0.07178,0.21582-0.57617,0.28809-0.57617c0.21582,0,0.21582-0.35986,0.28809-0.50391 c0.07227-0.21582,0.14355-0.57617,0.36035-0.72021c0.14355-0.14404,0.14355-0.21582,0.21582-0.35986 c0.07227-0.07178,0.07227-0.14404,0.14355-0.14404c0.07227-0.07178,0.07227-0.21582,0.07227-0.28809 c0-0.14404,0-0.07178,0.14453-0.14404c0.07129-0.14404,0.14355-0.28809,0.21582-0.43213 c0.07129-0.07178,0.14355-0.14355,0.21582-0.14355v-0.36035c0.28809,0,0.21582-0.28809,0.28809-0.43213 c0.07227-0.07178,0.28809,0,0.28809-0.14404c0-0.21582-0.07227-0.21582,0.14355-0.2876 c0.28809-0.14404,0.50391-0.57617,0.64844-0.79248c0.85547-1.2832,1.91748-2.40997,2.96826-3.51422 c-0.4248-0.68811-0.87817-1.35815-1.4165-1.99371c-0.83618-0.98712-1.72998-1.9129-2.60083-2.85498 c-1.52417,1.66107-2.99829,3.60077-4.28271,5.77594c-3.39648,5.7522-4.54443,11.74524-4.33643,16.25262 c0.95288,6.88062,6.62036,8.24066,10.27771,8.24066l-0.00012-0.00458C94.1211,116.80247,92.75123,116.39989,92.34303,115.99211z" transform="translate(339.091244 -118.992309)" stroke-width="0" stroke-linejoin="miter" stroke-miterlimit="2" opacity="0.63"></path> </g>
        <g id="path133647" aria-label="i" transform="translate(0 337.82548633) translate(363.1789522399997 15.27348895999998) scale(2.22) translate(-446.74244 34.580682)"> <path class="c1" d="M99.60818,89.95131c0.14355-1.2959,0.57617-2.73633,0.14355-4.10449 c-0.14355-0.79199-0.28711-0.93604-0.21582-1.15186c0.14453-0.35986,1.22461-0.43213,2.30469-0.07227 c1.72754,0.64844,3.02441,1.58447,3.38379,3.24072c0.21582,1.2959-0.21582,2.16016-1.00781,2.87988 c-0.86426,0.86426-3.02441,1.94434-4.39258,1.44043C99.24783,91.7516,99.60818,90.52748,99.60818,89.95131z M95.86404,119.32973 c2.10431,0,3.98944-0.37024,6.74677-2.61432c0.26721-0.21753,0.5152-0.4577,0.76678-0.69318 c0.10327-0.09668,0.17914-0.19885,0.2699-0.30267c0.11566-0.1322,0.27753-0.24207,0.41272-0.35394 c0.19501-0.15668,0.41321-0.32703,0.57391-0.52173c0.07721-0.0929,0.13727-0.20288,0.14587-0.32678 c0.07361,0.00488,0.14587-0.00702,0.21332-0.03284c0.17413-0.06891,0.24768-0.24945,0.33606-0.39752 c0.10419-0.1756,0.25995-0.13947,0.38501-0.2876c0.25153-0.29285,2.48395-1.99713,2.73157-3.54169 c0.09912-0.61829-0.17358-1.65649-1.33929-1.93402c-0.27167,0.72137-1.79071,2.54181-4.01196,4.58832 c-2.11298,1.94666-4.40875,3.35217-5.28455,3.35217c-1.79907,0-0.5202-3.20001,0.14178-4.8551 c0.43262-0.93555,1.87207-3.95996,2.16016-5.04004c0.07227-0.14404-0.07227-0.28809,0.07227-0.43213 c0.14355-0.14404,0.21582-0.43213,0.36035-0.57617c0.43164-0.86377,2.16016-4.46436,2.51953-5.32813 c0.7207-1.80029-0.43164-2.52051-2.08789-3.67236c-0.79199-0.50391-1.72852-0.93604-2.44824-1.22412 s-1.51172-0.21631-1.65625,0.07178c-0.07227,0.14404,0.07227,0.36035,0.14453,0.79248 c0.28711,2.01611-3.74512,10.22461-4.53711,12.60107c-0.79199,2.23242-1.58398,6.84082-0.14355,9.2168 C93.05544,118.89809,94.42361,119.32973,95.86404,119.32973z" transform="translate(355.207112 -118.966909)" stroke-width="0" stroke-linejoin="miter" stroke-miterlimit="2" fill="#e63b0e" stroke="#e63b0e"></path> <radialGradient id="bfa49ef6-c5d1-4433-8e80-8dca72e856a7" cx="111.9933" cy="95.16357" r="31.06255" gradientUnits="userSpaceOnUse" transform="translate(355.207112 -118.966909)"> <stop offset="0" style="stop-color:#000000;stop-opacity:0"></stop> <stop offset="0.53068" style="stop-color:#000000;stop-opacity:0"></stop> <stop offset="1" style="stop-color:#000000"></stop> </radialGradient> <path class="highlight" fill="url(#bfa49ef6-c5d1-4433-8e80-8dca72e856a7)" d="M99.94183,115.34194c-0.92853,0.57843-1.70593,0.92194-2.13715,0.92194 c-1.79913,0-0.52026-3.19995,0.14178-4.85504c0.43262-0.93555,1.87207-3.95996,2.16016-5.04004 c0.07227-0.14404-0.07227-0.28809,0.07227-0.43213c0.14355-0.14404,0.21582-0.43213,0.36035-0.57617 c0.43164-0.86377,2.16016-4.46436,2.51953-5.32813c0.7207-1.80029-0.43164-2.52051-2.08789-3.67236 c-0.79199-0.50391-1.72852-0.93604-2.44824-1.22412s-1.51172-0.21631-1.65625,0.07178 c-0.07227,0.14404,0.07227,0.36035,0.14453,0.79248c0.28711,2.01611-3.74512,10.22461-4.53711,12.60107 c-0.24188,0.68176-0.47571,1.59595-0.65399,2.5896C91.44781,117.62081,95.74286,118.52084,99.94183,115.34194z" transform="translate(355.207112 -118.966909)" stroke-width="0" stroke-linejoin="miter" stroke-miterlimit="2" opacity="0.63"></path> <linearGradient id="d9495c55-07c2-44f2-9182-3b8a89b8d763" gradientUnits="userSpaceOnUse" x1="111.76465" y1="100.12929" x2="97.56057" y2="113.6599"> <stop offset="0.31811" style="stop-color:#000000"></stop> <stop offset="0.50903" style="stop-color:#000000;stop-opacity:0.68377"></stop> <stop offset="0.92184" style="stop-color:#000000;stop-opacity:0"></stop> </linearGradient> <path class="highlight" fill="url(#d9495c55-07c2-44f2-9182-3b8a89b8d763)" d="M107.10114,108.32345c-0.27167,0.72137-1.79071,2.54175-4.01196,4.58826 c-1.07251,0.9881-2.19025,1.83405-3.14734,2.43024c-4.19897,3.17889-8.49402,2.27887-8.12201-4.15112 c-0.40552,2.26013-0.49011,4.97681,0.51044,6.6272c0.71973,1.08008,2.08789,1.51172,3.52832,1.51172 c2.10425,0,3.98938-0.37024,6.7467-2.61438c0.26721-0.21747,0.5152-0.4577,0.76678-0.69318 c0.10327-0.09668,0.17914-0.19885,0.2699-0.30267c0.11566-0.1322,0.27753-0.24207,0.41272-0.35394 c0.19501-0.15668,0.41321-0.32703,0.57391-0.52173c0.07721-0.0929,0.13727-0.20288,0.14587-0.32678 c0.07361,0.00488,0.14587-0.00702,0.21332-0.03284c0.17413-0.06891,0.24768-0.24945,0.33606-0.39752 c0.10419-0.1756,0.25995-0.13947,0.38501-0.2876c0.25153-0.29285,2.48395-1.99707,2.73157-3.54163 C108.53955,109.63918,108.26685,108.60098,107.10114,108.32345z" transform="translate(355.207112 -118.966909)" stroke-width="0" stroke-linejoin="miter" stroke-miterlimit="2" opacity="0.63"></path> <linearGradient id="3f079498-a790-4091-ab78-208236efe4ad" gradientUnits="userSpaceOnUse" x1="101.90133" y1="101.48849" x2="102.88092" y2="71.97829"> <stop offset="0.19068" style="stop-color:#000000"></stop> <stop offset="0.50638" style="stop-color:#000000;stop-opacity:0"></stop> </linearGradient> <path class="highlight" fill="url(#3f079498-a790-4091-ab78-208236efe4ad)" d="M99.6027,89.95131c0.14355-1.2959,0.57617-2.73633,0.14355-4.10449 c-0.14355-0.79199-0.28711-0.93604-0.21582-1.15186c0.14453-0.35986,1.22461-0.43213,2.30469-0.07227 c1.72754,0.64844,3.02441,1.58447,3.38379,3.24072c0.21582,1.2959-0.21582,2.16016-1.00781,2.87988 c-0.86426,0.86426-3.02441,1.94434-4.39258,1.44043C99.24235,91.7516,99.6027,90.52748,99.6027,89.95131z" transform="translate(355.207112 -118.966909)" stroke-width="0" stroke-linejoin="miter" stroke-miterlimit="2" opacity="0.63"></path> </g>
        <g id="path133649" aria-label="n" transform="translate(0 337.82548633) translate(393.7676218399998 37.67706295999999) scale(2.22) translate(-460.52112 24.488982)"> <path class="c1" d="M98.59418,114.43324c0.36035,2.30469,2.27216,5.04102,5.12689,5.04102 c1.15192,0,2.87769-0.51477,4.61621-2.36847c0.23566-0.25128,0.4693-0.50458,0.69739-0.76294 c0.09363-0.10602,0.15942-0.21497,0.23987-0.32697c0.1026-0.14258,0.2533-0.26733,0.3772-0.39154 c0.17926-0.1745,0.38025-0.36487,0.52173-0.57397c0.06805-0.09979,0.11737-0.21497,0.11414-0.33917 c0.07373-0.00214,0.14453-0.02081,0.20923-0.05292c0.16681-0.08521,0.22284-0.27191,0.29675-0.42773 c0.08704-0.18469,0.24548-0.16351,0.3559-0.32288c0.2226-0.31543,2.453-2.71594,2.61932-3.65021 c0.10974-0.61652-0.17358-1.65649-1.33929-1.93402c-0.27167,0.72137-1.91638,2.76776-3.97437,4.97839 c-1.98511,2.13239-3.24799,3.1853-4.4212,3.1853c-1.32959,0-0.77521-2.91205,0.14117-5.04407 c1.28412-2.98767,3.11853-6.30029,4.21204-8.96246c0.57617-1.36816,1.2959-2.88037,1.00781-3.96045 c-0.14355-0.50391-0.50391-1.51221-1.36816-2.01611c-1.22363-0.86426-1.51172-1.08008-2.08789-1.22412 c-0.79199-0.21631-1.36816,0.28809-1.65625,0.79199c-0.08704,0.13916-0.27368,0.48151-0.50488,0.9212 c-1.20441,1.14868-3.04797,2.62524-5.29163,5.18195c-0.80652,0.91901-1.95917,2.099-3.19409,3.40472 c0.41559-0.91638,0.78479-1.82898,1.0697-2.8111c0.36035-1.29639,1.08008-3.60059,0.50391-4.96875 c-0.64746-1.51221-2.16016-2.52002-3.16797-2.95215c-0.43164-0.21582-1.44043-0.57617-1.65625-0.21582 c-0.14355,0.14404,0.07227,0.43164,0.07227,1.08008c0,1.2959-0.57617,3.74414-0.93652,4.68018 c-1.7998,4.89648-4.96777,9.93652-4.96777,13.68164c0,2.08789,0.86328,3.59961,2.30371,4.82422 c0.43164,0.28809,1.58398,0.79199,1.87207,0.35938c0.14453-0.21582-0.21582-0.5752-0.07227-1.65527 c0.06927-0.41486,0.32098-1.2403,0.65631-2.21631c0.49054-0.922,1.15173-1.62592,2.07678-2.73254 c2.68866-3.21637,4.78943-5.26514,6.4201-7.02319c0.29102-0.31378,0.55365-0.59729,0.81824-0.88306 c-0.12463,0.31573-0.21606,0.56201-0.24976,0.68567C98.88227,108.96059,98.16157,111.40883,98.59418,114.43324z" transform="translate(374.31171 -118.9678)" stroke-width="0" stroke-linejoin="miter" stroke-miterlimit="2" fill="#e63b0e" stroke="#e63b0e"></path> <linearGradient id="ca33d51c-1321-4397-82a1-452a1003b7fa" gradientUnits="userSpaceOnUse" x1="87.59581" y1="116.37775" x2="103.54542" y2="99.35136"> <stop offset="0.21023" style="stop-color:#000000"></stop> <stop offset="0.43527" style="stop-color:#000000;stop-opacity:0.68377"></stop> <stop offset="0.92184" style="stop-color:#000000;stop-opacity:0"></stop> </linearGradient> <path class="highlight" fill="url(#ca33d51c-1321-4397-82a1-452a1003b7fa)" d="M98.48618,102.17507c-0.80652,0.91901-1.95917,2.09894-3.19409,3.40466 c-0.40863,0.90112-0.86218,1.80585-1.32654,2.78455c-0.05823,0.1228-0.71533,1.24011-1.4317,2.92963 c-0.54498,1.2854-1.12775,2.82007-1.5647,4.0921c0.49048-0.92206,1.15173-1.62604,2.07684-2.73267 c2.68866-3.21637,4.78949-5.26514,6.42017-7.02325c0.29102-0.31372,0.55359-0.59723,0.81818-0.883 c0.67358-1.70605,2.44629-5.70605,2.90295-6.60828c0.20917-0.41321,0.41266-0.80756,0.59052-1.14575 C102.57346,98.14169,100.72984,99.61831,98.48618,102.17507z" transform="translate(374.31171 -118.9678)" stroke-width="0" stroke-linejoin="miter" stroke-miterlimit="2" opacity="0.63"></path> <radialGradient id="b9101bad-a16c-448a-a72a-76b95684d946" cx="119.45979" cy="91.67378" r="36.50068" gradientUnits="userSpaceOnUse" transform="translate(374.31171 -118.9678)"> <stop offset="0" style="stop-color:#000000;stop-opacity:0"></stop> <stop offset="0.52767" style="stop-color:#000000;stop-opacity:0"></stop> <stop offset="0.94021" style="stop-color:#000000"></stop> </radialGradient> <path class="highlight" fill="url(#b9101bad-a16c-448a-a72a-76b95684d946)" d="M106.40611,115.32882l0.00165-0.01294c-0.91693,0.77844-1.66321,1.1712-2.37378,1.1712 c-1.32959,0-0.77521-2.91199,0.14117-5.04407c1.28412-2.98767,3.11847-6.30029,4.21198-8.9624 c0.57617-1.36816,1.2959-2.88037,1.00781-3.96045c-0.14355-0.50391-0.50391-1.51221-1.36816-2.01611 c-1.22363-0.86426-1.51172-1.08008-2.08789-1.22412c-0.79199-0.21631-1.36816,0.28809-1.65625,0.79199 c-0.15399,0.24622-0.61432,1.11658-1.09534,2.06689c-0.54114,1.06915-2.93689,6.50195-3.15271,7.29395 c-0.71735,2.19611-1.26666,3.97369-1.47534,5.73248C98.57371,117.20791,103.54008,118.37954,106.40611,115.32882z" transform="translate(374.31171 -118.9678)" stroke-width="0" stroke-linejoin="miter" stroke-miterlimit="2" opacity="0.63"></path> <linearGradient id="94ebc1d4-9f93-4087-a31d-39d03e1bd6f5" gradientUnits="userSpaceOnUse" x1="115.06871" y1="102.3747" x2="100.12994" y2="117.49715"> <stop offset="0.07279" style="stop-color:#000000"></stop> <stop offset="0.34129" style="stop-color:#000000;stop-opacity:0.68377"></stop> <stop offset="0.92184" style="stop-color:#000000;stop-opacity:0"></stop> </linearGradient> <path class="highlight" fill="url(#94ebc1d4-9f93-4087-a31d-39d03e1bd6f5)" d="M112.42948,108.32345c-0.27167,0.72137-1.91638,2.7677-3.9743,4.97839 c-0.78278,0.84082-1.45044,1.50726-2.04742,2.01404l-0.00165,0.01294c-2.86603,3.05072-7.8324,1.87909-7.84686-4.16357 c-0.12659,1.06659-0.12842,2.12628,0.03491,3.26801c0.36035,2.30469,2.27222,5.04102,5.12695,5.04102 c1.15192,0,2.87769-0.51477,4.61615-2.36847c0.23572-0.25128,0.46936-0.50464,0.69745-0.76294 c0.09357-0.10608,0.15942-0.21497,0.23987-0.32697c0.1026-0.14258,0.25323-0.26733,0.3772-0.3916 c0.1792-0.1745,0.38025-0.36481,0.52173-0.57391c0.06799-0.09979,0.11731-0.21503,0.11414-0.33917 c0.07373-0.00214,0.14453-0.02087,0.20923-0.05298c0.16681-0.08514,0.22284-0.27185,0.29675-0.42767 c0.08698-0.18469,0.24548-0.16351,0.3559-0.32288c0.22253-0.31543,2.453-2.716,2.61926-3.65021 C113.87852,109.64095,113.59519,108.60098,112.42948,108.32345z" transform="translate(374.31171 -118.9678)" stroke-width="0" stroke-linejoin="miter" stroke-miterlimit="2" opacity="0.63"></path> <linearGradient id="8ba5d2aa-ece7-4cf0-a954-82d6f5173ebe" gradientUnits="userSpaceOnUse" x1="87.94054" y1="141.90417" x2="92.80051" y2="95.51362"> <stop offset="0.21023" style="stop-color:#000000"></stop> <stop offset="0.43527" style="stop-color:#000000;stop-opacity:0.68377"></stop> <stop offset="0.92184" style="stop-color:#000000;stop-opacity:0"></stop> </linearGradient> <path class="highlight" fill="url(#8ba5d2aa-ece7-4cf0-a954-82d6f5173ebe)" d="M90.31291,117.6022c0.15962-0.9556,1.25781-4.03673,2.22093-6.30826 c0.71635-1.68951,1.37347-2.80686,1.43172-2.92962c0.93652-1.97391,1.83111-3.64771,2.39618-5.59562 c0.36035-1.29639,1.08008-3.60059,0.50391-4.96875c-0.64746-1.51221-2.16016-2.52002-3.16797-2.95215 c-0.43164-0.21582-1.44043-0.57617-1.65625-0.21582c-0.14355,0.14404,0.07227,0.43164,0.07227,1.08008 c0,1.2959-0.57617,3.74414-0.93652,4.68018c-1.7998,4.89648-4.96777,9.93652-4.96777,13.68164 c0,2.08789,0.86328,3.59961,2.30371,4.82422c0.43164,0.28809,1.58398,0.79199,1.87207,0.35938 C90.52971,119.04165,90.16936,118.68227,90.31291,117.6022z" transform="translate(374.31171 -118.9678)" stroke-width="0" stroke-linejoin="miter" stroke-miterlimit="2" opacity="0.63"></path> </g>
        <g id="path133651" aria-label="e" transform="translate(0 337.82548633) translate(450.0511264399998 38.33636299999999) scale(2.22) translate(-485.87405 24.192)"> <path class="c1" d="M92.4241,105.21693c-0.93555,2.37646-1.58398,4.96826-1.36816,7.56006 c0,4.17676,2.80859,6.625,6.26465,6.625c1.15192,0,3.28119-0.35712,5.81122-2.68658c0.25952-0.22662,0.5152-0.4577,0.76678-0.69318 c0.10327-0.09668,0.17914-0.19885,0.2699-0.30267c0.11566-0.1322,0.27753-0.24207,0.41272-0.35394 c0.19501-0.15668,0.41321-0.32703,0.57391-0.52173c0.07721-0.0929,0.13727-0.20288,0.14587-0.32678 c0.07361,0.00488,0.14587-0.00702,0.21332-0.03284c0.17413-0.06891,0.24768-0.24945,0.33606-0.39752 c0.10419-0.1756,0.25995-0.13947,0.38501-0.2876c0.25153-0.29285,2.48395-1.99713,2.73157-3.54169 c0.09912-0.61829-0.17358-1.65649-1.33929-1.93402c-0.27167,0.72137-1.79071,2.54181-4.01196,4.58832 c-1.89575,1.74646-4.10406,3.78534-5.82965,3.71405c-2.42456-0.10022-2.60144-2.22675-2.40796-4.01294 c0.05853-0.54047,0.24457-1.25812,0.49255-2.026c1.31628-0.42072,3.69324-1.3385,6.11603-3.14563 c3.13092-2.33539,3.91394-3.67432,4.68604-6.01733c0.1817-0.55127,0.22504-1.60785,0.22504-2.18353 c0.07227-0.57617,0-0.93604-0.57617-1.36816c-0.36035-0.28809-2.52051-1.80029-3.0957-2.16016 c-0.7207-0.36035-1.36816-0.93604-2.23242-0.93604c-0.93652,0-1.87207,0.79199-2.44824,1.36768 C95.88113,98.52016,93.64871,101.83266,92.4241,105.21693z M105.09793,99.45619c0.21582,0.21582-0.117,0.9339-0.26154,1.29376 c-0.84662,1.55341-3.24084,3.93329-5.55597,5.13538c-0.62604,0.32501-1.20386,0.4989-1.73944,0.64667 c0.17566-0.3382,0.33185-0.60596,0.45129-0.76672C99.58084,103.62782,104.11624,98.71992,105.09793,99.45619z" transform="translate(394.859731 -118.96802)" stroke-width="0" stroke-linejoin="miter" stroke-miterlimit="2" fill="#e63b0e" stroke="#e63b0e"></path> <linearGradient id="1ddd85a8-09d1-449e-ace9-eda0f30c617c" gradientUnits="userSpaceOnUse" x1="91.21967" y1="104.33775" x2="109.11127" y2="107.11261"> <stop offset="0.19621" style="stop-color:#000000"></stop> <stop offset="0.61474" style="stop-color:#000000;stop-opacity:0.22835"></stop> <stop offset="0.7386" style="stop-color:#000000;stop-opacity:0"></stop> </linearGradient> <path class="highlight" fill="url(#1ddd85a8-09d1-449e-ace9-eda0f30c617c)" d="M106.55647,101.3818c-0.60242-0.21936-1.18817-0.4118-1.82452-0.46521 c-0.91711,1.55261-3.21454,3.80719-5.45154,4.96875c-0.62604,0.32501-1.20386,0.4989-1.73944,0.64667 c-0.51666,0.99463-1.20514,2.61444-1.67035,4.05487c1.31635-0.42072,3.69324-1.3385,6.11603-3.14563 c3.13098-2.33539,3.91394-3.67432,4.6861-6.01733c0.00024-0.00067,0.00031-0.00177,0.00055-0.00244 C106.63466,101.4078,106.59444,101.39565,106.55647,101.3818z" transform="translate(394.859731 -118.96802)" stroke-width="0" stroke-linejoin="miter" stroke-miterlimit="2" opacity="0.63"></path> <radialGradient id="6c36b3fa-7f10-4a01-a8d9-f793c7977121" cx="111.7691" cy="100.63885" r="27.83636" gradientUnits="userSpaceOnUse" transform="translate(394.859731 -118.96802)"> <stop offset="0" style="stop-color:#000000;stop-opacity:0"></stop> <stop offset="0.61314" style="stop-color:#000000;stop-opacity:0"></stop> <stop offset="0.94587" style="stop-color:#000000"></stop> </radialGradient> <path class="highlight" fill="url(#6c36b3fa-7f10-4a01-a8d9-f793c7977121)" d="M95.37807,112.61282c0.20575-1.89886,1.95612-5.96204,2.6142-6.84753 c0.53534-0.72028,1.40735-1.75488,2.36322-2.78241c-1.81189-0.72107-3.85223-1.36401-5.67474-2.26282 c-0.92255,1.43109-1.6983,2.9541-2.25659,4.49689c-0.71106,1.80615-1.25366,3.73688-1.37964,5.6972 c0.14209,7.66418,5.9519,7.68298,9.77856,4.4007l0.00079-0.00702c-1.06921,0.79211-2.12177,1.35583-3.03784,1.31799 C95.36153,116.5256,95.18459,114.39907,95.37807,112.61282z" transform="translate(394.859731 -118.96802)" stroke-width="0" stroke-linejoin="miter" stroke-miterlimit="2" opacity="0.63"></path> <linearGradient id="66a7963f-fdf8-4985-9333-c86070af1c0b" gradientUnits="userSpaceOnUse" x1="116.63695" y1="99.15231" x2="100.5349" y2="116.23393"> <stop offset="0.28222" style="stop-color:#000000"></stop> <stop offset="0.48449" style="stop-color:#000000;stop-opacity:0.68377"></stop> <stop offset="0.92184" style="stop-color:#000000;stop-opacity:0"></stop> </linearGradient> <path class="highlight" fill="url(#66a7963f-fdf8-4985-9333-c86070af1c0b)" d="M107.62764,108.32345c-0.27167,0.72137-1.79071,2.54175-4.01196,4.58826 c-1.89569,1.74652-4.10406,3.7854-5.82965,3.71411c-0.38397-0.01587-0.69397-0.09729-0.97266-0.20538 c-0.40759,0.92529-0.83368,1.84131-1.2865,2.7439c0.56879,0.15521,1.1701,0.23767,1.79376,0.23767 c1.15192,0,3.28113-0.35718,5.81116-2.68665c0.25952-0.22662,0.5152-0.4577,0.76678-0.69318 c0.10327-0.09668,0.17914-0.19885,0.2699-0.30267c0.11566-0.1322,0.27753-0.24207,0.41272-0.35394 c0.19501-0.15668,0.41321-0.32703,0.57391-0.52173c0.07721-0.0929,0.13727-0.20288,0.14587-0.32678 c0.07361,0.00488,0.14587-0.00702,0.21332-0.03284c0.17413-0.06891,0.24768-0.24945,0.33606-0.39752 c0.10419-0.1756,0.25995-0.13947,0.38501-0.2876c0.25153-0.29285,2.48395-1.99707,2.73157-3.54163 C109.06606,109.63918,108.79335,108.60098,107.62764,108.32345z" transform="translate(394.859731 -118.96802)" stroke-width="0" stroke-linejoin="miter" stroke-miterlimit="2" opacity="0.63"></path> </g>
        <g id="path133653" aria-label="V" transform="translate(0 337.82548633) translate(485.92288543999985 -1.2919756600000056) scale(2.22) translate(-502.0325 42.042603)"> <path class="c1" d="M79.05585,97.03381c0.21582,0.07178,0.21582-0.43213,0.43164-0.72021 c0.07227-0.21582,0.07227-0.28809,0.14355-0.43164c0.07227-0.14404,0.2168-0.43213,0.14453-0.57617 c0-0.07227,0.14355-0.14404,0.21582-0.21631c0.07227-0.14404,0.14453-0.2876,0.21582-0.43164 c0.2158-0.36035,0.28809-0.86426,0.57617-1.0083c0.14453-0.14404,0.14453-0.35986,0.28809-0.43213 c0.14453-0.07178,0.14453-0.14404,0.21582-0.28809c2.01465-3.04279,5.08868-5.92877,8.60419-7.54041 c0.83685-0.38361,1.68304-0.70038,2.50177-0.96277c-0.59436,0.98761-1.15912,2.04828-1.60107,3.10278 c-0.07129,0.14404-0.14355,0.14404-0.21582,0.28809s-0.07227,0.28809-0.14355,0.35986 c-0.2168,0.36035-0.36035,0.64844-0.57617,0.93604c-0.14453,0.28809-0.28809,0.57617-0.43262,0.93652 c0,0.07178-0.07129,0.2876-0.14355,0.2876c-0.14453,0.07227-0.14453,0.14404-0.14453,0.21631 c-0.07129,0.28809-0.28809,0.64795-0.43164,0.93604c-0.14453,0.35986-0.36035,0.72021-0.50391,1.08008 c-3.16797,6.98438-3.3125,11.37695-3.38477,13.89697c-0.21582,5.04053,2.0166,12.81738,8.56934,12.81738 c4.53613,0,7.7569-2.62006,9.41217-4.70795c0.07227-0.07227,0.2168-0.21631,0.28809-0.28809c0-0.14404,0-0.21631,0.07227-0.21631 c0.21582-0.14404,0.28809-0.35986,0.43262-0.57568c0.14355-0.21631,0.5752-0.50439,0.71973-0.72021 c0-0.14404,0.07227-0.21631,0-0.35986c0.14355-0.07227,0.21582-0.21631,0.36035-0.14404 c1.65527-2.23242,3.39465-6.07129,3.82727-7.5835c0.07129-0.21582,0.21582-0.50391,0.28711-0.71973 c0-0.28809,0.00543-0.95111,0.14996-1.09467c0.07129-0.21631,0.14355-0.21631,0.14355-0.36035s0-0.28809,0.07227-0.43213 c0-0.28809,0.07227-0.50391,0.14355-0.71973c0.07227-0.14404,0.14453-0.28809,0.14453-0.43213s-0.14453-0.07227-0.07227-0.21631 c0.07227-0.2876,0.14453-0.57568,0.21582-0.86377c0-0.21631,0.14453-0.43213,0.14453-0.72021s0-0.64795,0.07227-1.00781 c0.18536-1.71448,0.46216-6.89722-1.50854-10.76764c3.08783,0.49127,6.92303-0.4054,7.99219-1.04889 c0.14453-0.07178,0.07227-0.14404,0.21582-0.21582c0.14453,0,0.2168-0.07227,0.36035-0.14404 c0.21582-0.14404,0.43164-0.28809,0.64844-0.43213c0.21582-0.21582,0.43164-0.28809,0.64746-0.43213 c0.2168-0.21582,0.50391-0.35986,0.7207-0.57617c1.08008-0.86377,2.5918-2.66406,2.23145-4.75195 c-0.14355-0.79248-1.51172-1.87256-2.08789-2.37646c-0.14355-0.21582-0.86426-0.57617-1.08008-0.35986 c-0.07227,0.07178,0.07227,0.21582-0.07227,0.71973c-0.50391,2.66455-1.51172,4.10449-4.82422,5.6167 c-1.65912,0.71735-3.42126,1.31409-4.82251,1.46265c-0.84821,0.0899-1.57257,0.04608-2.13544-0.03815 c-0.40924-0.26636-1.30023-0.69452-2.04303-0.13745c-0.12042,0.09033-0.69275,0.76135-0.28094,1.47479 c0.46649,0.12439,1.48053,0.74396,2.15948,2.03656c1.70142,3.23926,1.33289,7.78467,0.93652,11.40277 c-0.35938,3.16846-1.55377,6.05371-2.16199,7.27295c-0.07227,0.14404,0.07227,0.43213-0.07227,0.57617 c-0.07227,0.07178-0.14355,0.14355-0.21582,0.21582c-0.07227,0.14404,0,0.50391-0.21582,0.43213 c-0.14453,0,0.21582,0.21582,0.07227,0.28809c0,0.07178-0.2168,0.14404-0.28809,0.14404 c-0.07227,0.07178-0.28809,0.43164-0.50488,0.79199c-0.28711,0.35986-0.43164,0.71973-0.43164,0.79199 c0,0.28809-0.07227,0.07178-0.21582,0.14404c-0.07227,0.07178-0.14453,0.28809-0.21582,0.35986 c-2.80859,4.68066-6.61285,6.06458-8.86377,6.06458c-3.47485,0-4.93744-3.28241-4.86359-7.38214 c0.11346-6.302,3.00592-12.68066,6.80963-17.6922c1.2959-1.72803,3.24023-3.31201,4.6084-4.68018 c0.28809-0.28809,1.00781-0.57617,1.2959-1.51221c0.36035-0.86426-0.5752-2.23193-1.00781-2.88037 c-0.57617-0.79199-1.22675-1.58221-1.94434-2.3042c-0.82166-0.8266-1.75885-0.97333-2.47577-0.51208 c-0.41602-0.02289-0.85803,0.06708-1.26837,0.15222c-0.21582,0.07178-0.36035,0.21582-0.64746,0.28809 c-3.24121,0.64795-6.33691,2.88037-7.99316,4.24854c-0.21582,0.14355-0.43164,0.64795-0.64844,0.64795 c-0.21582,0.07178-0.14355,0.28809-0.28809,0.35986c-0.5752,0.07227-0.86328,0.72021-1.22363,1.15234 c-0.57617,0.71973-1.22461,1.43994-1.7998,2.16016c-0.07227,0.07178-0.2168,0-0.2168,0.07178 c-0.07129,0.07227,0,0.21631-0.14355,0.35986c-1.08008,1.15234-2.44824,4.17676-2.66406,4.89648 c-0.21582,0.64844-0.36035,1.44043-0.43262,2.16016C78.83906,96.45763,78.83906,97.03381,79.05585,97.03381z" transform="translate(423.19344 -118.992109)" stroke-width="0" stroke-linejoin="miter" stroke-miterlimit="2" fill="#e63b0e" stroke="#e63b0e"></path> <linearGradient id="453520c8-c057-4efd-8522-1ebce7ed2d97" gradientUnits="userSpaceOnUse" x1="106.30539" y1="90.43259" x2="82.84016" y2="87.8243"> <stop offset="0.49905" style="stop-color:#000000"></stop> <stop offset="0.64387" style="stop-color:#000000;stop-opacity:0.6981"></stop> <stop offset="0.88153" style="stop-color:#000000;stop-opacity:0.20266"></stop> <stop offset="0.97874" style="stop-color:#000000;stop-opacity:0"></stop> </linearGradient> <path class="highlight" fill="url(#453520c8-c057-4efd-8522-1ebce7ed2d97)" d="M92.39322,84.42613c1.51904-2.52405,3.23822-4.55554,3.64447-4.67401 c0.04065-0.03149,0.08502-0.0528,0.12732-0.08002c-0.41602-0.02283-0.85803,0.06708-1.26831,0.15222 c-0.21582,0.07178-0.36035,0.21582-0.64746,0.28809c-3.24121,0.64795-6.33691,2.88037-7.99316,4.24854 c-0.21582,0.14355-0.43164,0.64795-0.64844,0.64795c-0.21582,0.07178-0.14355,0.28809-0.28809,0.35986 c-0.5752,0.07227-0.86328,0.72021-1.22363,1.15234c-0.57617,0.71973-1.22461,1.43994-1.7998,2.16016 c-0.07227,0.07178-0.2168,0-0.2168,0.07178c-0.07129,0.07227,0,0.21631-0.14355,0.35986 c-1.08008,1.15234-2.44824,4.17676-2.66406,4.89648c-0.21582,0.64844-0.36035,1.44043-0.43262,2.16016 c0,0.28809,0,0.86426,0.2168,0.86426c0.21582,0.07178,0.21582-0.43213,0.43164-0.72021 c0.07227-0.21582,0.07227-0.28809,0.14355-0.43164c0.07227-0.14404,0.2168-0.43213,0.14453-0.57617 c0-0.07227,0.14355-0.14404,0.21582-0.21631c0.07227-0.14404,0.14453-0.2876,0.21582-0.43164 c0.21582-0.36035,0.28809-0.86426,0.57617-1.0083c0.14453-0.14404,0.14453-0.35986,0.28809-0.43213 c0.14453-0.07178,0.14453-0.14404,0.21582-0.28809c2.01465-3.04279,5.08868-5.92877,8.60413-7.54041 C90.7283,85.00529,91.57449,84.68852,92.39322,84.42613z" transform="translate(423.19344 -118.992109)" stroke-width="0" stroke-linejoin="miter" stroke-miterlimit="2" opacity="0.63"></path> <linearGradient id="b408447d-50cc-4d4c-9efb-e30c991b3d4d" gradientUnits="userSpaceOnUse" x1="81.5308" y1="94.89048" x2="121.84712" y2="79.92109"> <stop offset="0.58395" style="stop-color:#000000"></stop> <stop offset="0.69273" style="stop-color:#000000;stop-opacity:0.68377"></stop> <stop offset="0.92796" style="stop-color:#000000;stop-opacity:0"></stop> </linearGradient> <path class="highlight" fill="url(#b408447d-50cc-4d4c-9efb-e30c991b3d4d)" d="M121.10666,79.75255c-0.14355-0.79248-1.51172-1.87256-2.08789-2.37646 c-0.14355-0.21582-0.86426-0.57617-1.08008-0.35986c-0.07227,0.07178,0.07227,0.21582-0.07227,0.71973 c-0.50391,2.66455-1.51172,4.10449-4.82422,5.6167c-1.65912,0.71735-3.42133,1.31409-4.82251,1.46265 c-0.84833,0.0899-1.57275,0.04608-2.13562-0.03821c0.01642,0.01068,0.03717,0.02264,0.05194,0.03271 c0.57336,0.3905,1.08582,0.89752,1.50433,1.42755c0.24316,0.35437,0.45374,0.73114,0.6499,1.11633 c3.08783,0.49127,6.92303-0.4054,7.99219-1.04889c0.14453-0.07178,0.07227-0.14404,0.21582-0.21582 c0.14453,0,0.2168-0.07227,0.36035-0.14404c0.21582-0.14404,0.43164-0.28809,0.64844-0.43213 c0.21582-0.21582,0.43164-0.28809,0.64746-0.43213c0.2168-0.21582,0.50391-0.35986,0.7207-0.57617 C119.95529,83.64073,121.46701,81.84044,121.10666,79.75255z" transform="translate(423.19344 -118.992109)" stroke-width="0" stroke-linejoin="miter" stroke-miterlimit="2" opacity="0.63"></path> <radialGradient id="e62e98f1-f674-4b3d-aebb-66fe76b10f55" cx="144.31924" cy="59.69252" r="85.73402" gradientUnits="userSpaceOnUse" transform="translate(423.19344 -118.992109)"> <stop offset="0.71722" style="stop-color:#000000;stop-opacity:0"></stop> <stop offset="0.9485" style="stop-color:#000000"></stop> </radialGradient> <path class="highlight" fill="url(#e62e98f1-f674-4b3d-aebb-66fe76b10f55)" d="M100.10764,113.73332l-0.00537-0.00427c-2.28967,2.17395-4.7309,2.90637-6.35962,2.90637 c-3.47485,0-4.93744-3.28235-4.86365-7.38208c0.11353-6.302,3.00598-12.68066,6.80969-17.6922 c1.2959-1.72803,3.24023-3.31201,4.6084-4.68018c0.28809-0.28809,1.00781-0.57617,1.2959-1.51221 c0.36035-0.86426-0.5752-2.23193-1.00781-2.88037c-0.57617-0.79199-1.22681-1.58221-1.94434-2.3042 c-0.87012-0.87543-1.87305-0.99725-2.60315-0.43207c-0.56525,0.16486-3.67395,4.02728-5.24548,7.77679 c-0.07129,0.14404-0.14355,0.14404-0.21582,0.28809s-0.07227,0.28809-0.14355,0.35986 c-0.2168,0.36035-0.36035,0.64844-0.57617,0.93604c-0.14453,0.28809-0.28809,0.57617-0.43262,0.93652 c0,0.07178-0.07129,0.2876-0.14355,0.2876c-0.14453,0.07227-0.14453,0.14404-0.14453,0.21631 c-0.07129,0.28809-0.28809,0.64795-0.43164,0.93604c-0.14453,0.35986-0.36035,0.72021-0.50391,1.08008 c-3.16797,6.98438-3.3125,11.37695-3.38477,13.89697c-0.06982,1.63074,0.12189,3.54657,0.62799,5.39417 C87.38412,117.34404,94.51364,119.8792,100.10764,113.73332z" transform="translate(423.19344 -118.992109)" stroke-width="0" stroke-linejoin="miter" stroke-miterlimit="2" opacity="0.63"></path> </g>
        <g id="path133655" aria-label="e" transform="translate(0 337.82548633) translate(556.1948764399999 38.33636299999999) scale(2.22) translate(-533.68655 24.192)"> <path class="c1" d="M92.4241,105.21693c-0.93555,2.37646-1.58398,4.96826-1.36816,7.56006 c0,4.17676,2.80859,6.625,6.26465,6.625c1.15192,0,3.28119-0.35712,5.81122-2.68658c0.25952-0.22662,0.5152-0.4577,0.76678-0.69318 c0.10327-0.09668,0.17914-0.19885,0.2699-0.30267c0.11566-0.1322,0.27753-0.24207,0.41272-0.35394 c0.19501-0.15668,0.41321-0.32703,0.57391-0.52173c0.07721-0.0929,0.13727-0.20288,0.14587-0.32678 c0.07361,0.00488,0.14587-0.00702,0.21332-0.03284c0.17413-0.06891,0.24768-0.24945,0.33606-0.39752 c0.10419-0.1756,0.25995-0.13947,0.38501-0.2876c0.25153-0.29285,2.48395-1.99713,2.73157-3.54169 c0.09912-0.61829-0.17358-1.65649-1.33929-1.93402c-0.27167,0.72137-1.79071,2.54181-4.01196,4.58832 c-1.89575,1.74646-4.10406,3.78534-5.82965,3.71405c-2.42456-0.10022-2.60144-2.22675-2.40796-4.01294 c0.05853-0.54047,0.24457-1.25812,0.49255-2.026c1.31628-0.42072,3.69324-1.3385,6.11603-3.14563 c3.13092-2.33539,3.91394-3.67432,4.68604-6.01733c0.1817-0.55127,0.22504-1.60785,0.22504-2.18353 c0.07227-0.57617,0-0.93604-0.57617-1.36816c-0.36035-0.28809-2.52051-1.80029-3.0957-2.16016 c-0.7207-0.36035-1.36816-0.93604-2.23242-0.93604c-0.93652,0-1.87207,0.79199-2.44824,1.36768 C95.88113,98.52016,93.64871,101.83266,92.4241,105.21693z M105.09793,99.45619c0.21582,0.21582-0.117,0.9339-0.26154,1.29376 c-0.84662,1.55341-3.24084,3.93329-5.55597,5.13538c-0.62604,0.32501-1.20386,0.4989-1.73944,0.64667 c0.17566-0.3382,0.33185-0.60596,0.45129-0.76672C99.58084,103.62782,104.11624,98.71992,105.09793,99.45619z" transform="translate(442.672231 -118.96802)" stroke-width="0" stroke-linejoin="miter" stroke-miterlimit="2" fill="#e63b0e" stroke="#e63b0e"></path> <linearGradient id="ffa8e9ef-2f7c-48c2-a43f-2496c6a2ebd4" gradientUnits="userSpaceOnUse" x1="91.21967" y1="104.33775" x2="109.11127" y2="107.11261"> <stop offset="0.19621" style="stop-color:#000000"></stop> <stop offset="0.61474" style="stop-color:#000000;stop-opacity:0.22835"></stop> <stop offset="0.7386" style="stop-color:#000000;stop-opacity:0"></stop> </linearGradient> <path class="highlight" fill="url(#ffa8e9ef-2f7c-48c2-a43f-2496c6a2ebd4)" d="M106.55647,101.3818c-0.60242-0.21936-1.18817-0.4118-1.82452-0.46521 c-0.91711,1.55261-3.21454,3.80719-5.45154,4.96875c-0.62604,0.32501-1.20386,0.4989-1.73944,0.64667 c-0.51666,0.99463-1.20514,2.61444-1.67035,4.05487c1.31635-0.42072,3.69324-1.3385,6.11603-3.14563 c3.13098-2.33539,3.91394-3.67432,4.6861-6.01733c0.00024-0.00067,0.00031-0.00177,0.00055-0.00244 C106.63466,101.4078,106.59444,101.39565,106.55647,101.3818z" transform="translate(442.672231 -118.96802)" stroke-width="0" stroke-linejoin="miter" stroke-miterlimit="2" opacity="0.63"></path> <radialGradient id="6c2ab2d9-d661-470b-bf35-5702a0a15c14" cx="111.7691" cy="100.63885" r="27.83636" gradientUnits="userSpaceOnUse" transform="translate(442.672231 -118.96802)"> <stop offset="0" style="stop-color:#000000;stop-opacity:0"></stop> <stop offset="0.61314" style="stop-color:#000000;stop-opacity:0"></stop> <stop offset="0.94587" style="stop-color:#000000"></stop> </radialGradient> <path class="highlight" fill="url(#6c2ab2d9-d661-470b-bf35-5702a0a15c14)" d="M95.37807,112.61282c0.20575-1.89886,1.95612-5.96204,2.6142-6.84753 c0.53534-0.72028,1.40735-1.75488,2.36322-2.78241c-1.81189-0.72107-3.85223-1.36401-5.67474-2.26282 c-0.92255,1.43109-1.6983,2.9541-2.25659,4.49689c-0.71106,1.80615-1.25366,3.73688-1.37964,5.6972 c0.14209,7.66418,5.9519,7.68298,9.77856,4.4007l0.00079-0.00702c-1.06921,0.79211-2.12177,1.35583-3.03784,1.31799 C95.36153,116.5256,95.18459,114.39907,95.37807,112.61282z" transform="translate(442.672231 -118.96802)" stroke-width="0" stroke-linejoin="miter" stroke-miterlimit="2" opacity="0.63"></path> <linearGradient id="4036ca44-482a-4f64-8ce2-4a3c569b6d67" gradientUnits="userSpaceOnUse" x1="116.63695" y1="99.15231" x2="100.5349" y2="116.23393"> <stop offset="0.28222" style="stop-color:#000000"></stop> <stop offset="0.48449" style="stop-color:#000000;stop-opacity:0.68377"></stop> <stop offset="0.92184" style="stop-color:#000000;stop-opacity:0"></stop> </linearGradient> <path class="highlight" fill="url(#4036ca44-482a-4f64-8ce2-4a3c569b6d67)" d="M107.62764,108.32345c-0.27167,0.72137-1.79071,2.54175-4.01196,4.58826 c-1.89569,1.74652-4.10406,3.7854-5.82965,3.71411c-0.38397-0.01587-0.69397-0.09729-0.97266-0.20538 c-0.40759,0.92529-0.83368,1.84131-1.2865,2.7439c0.56879,0.15521,1.1701,0.23767,1.79376,0.23767 c1.15192,0,3.28113-0.35718,5.81116-2.68665c0.25952-0.22662,0.5152-0.4577,0.76678-0.69318 c0.10327-0.09668,0.17914-0.19885,0.2699-0.30267c0.11566-0.1322,0.27753-0.24207,0.41272-0.35394 c0.19501-0.15668,0.41321-0.32703,0.57391-0.52173c0.07721-0.0929,0.13727-0.20288,0.14587-0.32678 c0.07361,0.00488,0.14587-0.00702,0.21332-0.03284c0.17413-0.06891,0.24768-0.24945,0.33606-0.39752 c0.10419-0.1756,0.25995-0.13947,0.38501-0.2876c0.25153-0.29285,2.48395-1.99707,2.73157-3.54163 C109.06606,109.63918,108.79335,108.60098,107.62764,108.32345z" transform="translate(442.672231 -118.96802)" stroke-width="0" stroke-linejoin="miter" stroke-miterlimit="2" opacity="0.63"></path> </g>
        <g id="path133657" aria-label="r" transform="translate(0 337.82548633) translate(588.8398654399998 29.385322999999993) scale(2.22) translate(-548.3915 28.224)"> <path class="c1" d="M100.36182,96.91176c0.16315-0.46991,0.27838-0.93707,0.34161-1.39117 c0.01849-0.11987,0.03302-0.23785,0.04443-0.35474c0.0025-0.03925,0.01367-0.08142,0.01508-0.12024 c-0.00085-0.00079-0.0036-0.00189-0.00452-0.00269c0.04822-0.61761,0.00513-1.19269-0.12354-1.70886 c-0.38873-1.55951-1.51373-2.58612-2.97937-2.58612c-0.86328,0-1.51172,0.43213-1.87207,0.93604 c-0.43018,0.75317-0.63641,1.50146-0.58075,2.24677c0.16656,2.2326,0.95813,3.6084,1.75555,4.46185 c-0.76219,1.76328-2.21144,4.13091-3.30322,5.87547c-0.30207,0.48267-0.63626,0.96174-0.74454,1.13733 c-0.07545,0.13895-0.11462,0.21251-0.2577,0.32009c-0.02237,0.05786-0.08958,0.02383-0.13017,0.0447 c-0.00302,0.00156-0.01871,0.03561-0.02346,0.04285c-0.05592,0.08-0.18262,0.25707-0.31744,0.46284 c-0.56844,0.86764-1.83644,2.70479-2.98597,3.76993c-0.14355,0.28809-0.21202,1.96235,1.03151,1.96235 c0.78079,0,1.50452-1.03452,2.50361-2.43374c1.71134-2.39672,3.80228-6.06702,5.70442-8.91283 c0.10431-0.15607,0.2879-0.43927,0.50317-0.7973c0.21033,0.1839,0.41284,0.45447,0.38824,0.89575 c-0.02759,0.49561-0.32471,0.98792-0.4906,1.35254c-0.50391,1.15186-2.76459,5.84485-3.26849,7.06946 c-1.36816,3.24023-1.22363,5.61621-1.00781,6.55176c0.3056,2.14746,2.49316,3.60059,4.31531,3.60059 c1.92859,0,3.92603-1.00525,6.15106-2.90247c0.26221-0.22351,0.5152-0.4577,0.76678-0.69318 c0.10327-0.09668,0.17914-0.19885,0.2699-0.30267c0.11566-0.1322,0.27753-0.24207,0.41272-0.35394 c0.19501-0.15668,0.41321-0.32703,0.57391-0.52173c0.07721-0.0929,0.13727-0.20288,0.14587-0.32678 c0.07361,0.00488,0.14587-0.00702,0.21332-0.03284c0.17413-0.06891,0.24768-0.24945,0.33606-0.39752 c0.10419-0.1756,0.25995-0.13947,0.38501-0.2876c0.25153-0.29285,2.48389-1.99707,2.73151-3.54163 c0.09912-0.61829-0.17358-1.65649-1.33929-1.93402c-0.27167,0.72137-1.79065,2.54175-4.0119,4.58826 c-2.11298,1.94666-4.10944,3.72638-5.62476,3.72638c-0.94128,0-1.22101-1.34058-0.06964-3.42847 c0.07227-0.14453,0.43262-0.79199,0.50391-0.86426c0.2168-0.14453,0.07227-0.43164,0.2168-0.57617 c0-0.07227,0.07129,0,0.07129-0.07227c0.07227-0.07129,0-0.14355,0.07227-0.21582c0.43262-0.57617,1.2959-2.37598,1.5127-2.66406 c0.07129-0.14355,0.28809-0.57617,0.43164-0.64844c0.07227-0.07129,0-0.07129,0.07227-0.21582 c0.07129-0.21582,0.21582-0.28809,0.28809-0.43164c0.14355-0.14453,0.28809-0.36035,0.28809-0.50391 c0.07129-0.28857,0.21582-0.36035,0.28809-0.57617c0.21582-0.50439,1.15137-2.16064,1.36719-2.73633 c0.57617-1.15234,0.64844-2.3042-0.21582-3.24023c-1.00781-1.0083-1.87207-1.58447-3.16797-2.44824 C101.29932,97.56117,100.84718,97.24776,100.36182,96.91176z M97.88422,92.5724c0.2323-0.01135,0.61145,0.39691,0.76007,1.20422 c0.04657,0.25299,0.05951,0.47113,0.04138,0.69281c-0.02142,0.23987-0.11145,0.55469-0.24707,0.91644 c-0.23547-0.24194-0.46057-0.49084-0.59082-0.68701c-0.2168-0.35986-0.33881-0.51355-0.41107-1.08972 C97.36543,92.9612,97.65199,92.58376,97.88422,92.5724z" transform="translate(459.271567 -118.97194)" stroke-width="0" stroke-linejoin="miter" stroke-miterlimit="2" fill="#e63b0e" stroke="#e63b0e"></path> <radialGradient id="cd019132-1879-4c4b-9760-2942acb531f7" cx="128.40448" cy="86.18623" r="51.43119" gradientUnits="userSpaceOnUse" transform="translate(459.271567 -118.97194)"> <stop offset="0" style="stop-color:#000000;stop-opacity:0"></stop> <stop offset="0.66783" style="stop-color:#000000;stop-opacity:0"></stop> <stop offset="0.90145" style="stop-color:#000000"></stop> </radialGradient> <path class="highlight" fill="url(#cd019132-1879-4c4b-9760-2942acb531f7)" d="M98.703,102.40968c-0.68213,1.50189-2.66693,5.63391-3.13538,6.77234 c-0.25684,0.60822-0.4458,1.17462-0.60553,1.71814c-1.50146,7.31415,4.4397,7.05603,7.74786,4.1452l0.00098-0.00616 c-1.04315,0.78583-2.00616,1.31537-2.82562,1.31537c-0.94128,0-1.22101-1.34052-0.06964-3.42841 c0.07227-0.14453,0.43262-0.79199,0.50391-0.86426c0.2168-0.14453,0.07227-0.43164,0.2168-0.57617 c0-0.07227,0.07129,0,0.07129-0.07227c0.07227-0.07129,0-0.14355,0.07227-0.21582c0.43262-0.57617,1.2959-2.37598,1.5127-2.66406 c0.07129-0.14355,0.28809-0.57617,0.43164-0.64844c0.07227-0.07129,0-0.07129,0.07227-0.21582 c0.07129-0.21582,0.21582-0.28809,0.28809-0.43164c0.14355-0.14453,0.28809-0.36035,0.28809-0.50391 c0.07129-0.28857,0.21582-0.36035,0.28809-0.57617c0.12341-0.28845,0.4812-0.95239,0.80615-1.57672 C102.46935,103.88026,100.56097,103.19624,98.703,102.40968z" transform="translate(459.271567 -118.97194)" stroke-width="0" stroke-linejoin="miter" stroke-miterlimit="2" opacity="0.63"></path> <linearGradient id="e8f41c98-bbef-4091-b4d4-04f99a063d8f" gradientUnits="userSpaceOnUse" x1="116.71473" y1="100.67692" x2="98.96729" y2="116.84019"> <stop offset="0.21023" style="stop-color:#000000"></stop> <stop offset="0.43527" style="stop-color:#000000;stop-opacity:0.68377"></stop> <stop offset="0.92184" style="stop-color:#000000;stop-opacity:0"></stop> </linearGradient> <path class="highlight" fill="url(#e8f41c98-bbef-4091-b4d4-04f99a063d8f)" d="M109.52203,108.03999c-0.27167,0.72137-1.79071,2.54175-4.01196,4.58826 c-0.97034,0.89398-1.91321,1.74365-2.79913,2.41095l-0.00098,0.00616c-3.30817,2.91083-6.65497,2.41129-8.15015,0.68842 c0.3056,2.14746,2.49323,3.60059,4.31531,3.60059c1.92859,0,3.92603-1.00525,6.15106-2.90247 c0.26221-0.22351,0.5152-0.4577,0.76678-0.69318c0.10327-0.09668,0.17914-0.19885,0.2699-0.30267 c0.11566-0.1322,0.27753-0.24207,0.41272-0.35394c0.19501-0.15668,0.41321-0.32703,0.57391-0.52173 c0.07721-0.0929,0.13727-0.20288,0.14587-0.32678c0.07361,0.00488,0.14587-0.00702,0.21332-0.03284 c0.17413-0.06891,0.24768-0.24945,0.33606-0.39752c0.10419-0.1756,0.25995-0.13947,0.38501-0.2876 c0.25153-0.29285,2.48395-1.99707,2.73157-3.54163C110.96044,109.35572,110.68774,108.31751,109.52203,108.03999z" transform="translate(459.271567 -118.97194)" stroke-width="0" stroke-linejoin="miter" stroke-miterlimit="2" opacity="0.63"></path> <radialGradient id="f4e3c29a-eee3-4ec7-91be-d8ea8331cb75" cx="98.85926" cy="97.90265" r="5.29735" gradientTransform="matrix(-0.53785 0.84304 -0.61507 -0.39241 212.24783 52.97776)" gradientUnits="userSpaceOnUse" transform="translate(459.271567 -118.97194)"> <stop offset="0.27629" style="stop-color:#000000"></stop> <stop offset="0.82889" style="stop-color:#000000;stop-opacity:0"></stop> </radialGradient> <path class="highlight" fill="url(#f4e3c29a-eee3-4ec7-91be-d8ea8331cb75)" d="M97.4367,93.60914c-0.05042-0.4585,0.08063-0.77271,0.24249-0.92645 c-0.02435-0.19446-0.05945-1.48639-0.11523-1.92334c-0.815,0.03088-1.43378,0.43976-1.78052,0.92462 c-0.43018,0.75317-0.63635,1.50146-0.58075,2.24677c0.16656,2.2326,0.95813,3.6084,1.75555,4.46185 c0.59894-1.06989,1.16547-2.16693,1.48035-3.00671c-0.23547-0.24194-0.46057-0.49084-0.59076-0.68701 C97.63103,94.339,97.50896,94.18531,97.4367,93.60914z" transform="translate(459.271567 -118.97194)" stroke-width="0" stroke-linejoin="miter" stroke-miterlimit="2" opacity="0.63"></path> <radialGradient id="ee5e7aa8-8705-4915-952e-461460ab8dfd" cx="98.86122" cy="97.90449" r="4.83326" gradientTransform="matrix(0.39176 -0.92007 0.62984 0.26818 -1.54567 162.61395)" gradientUnits="userSpaceOnUse" transform="translate(459.271567 -118.97194)"> <stop offset="0.26447" style="stop-color:#000000"></stop> <stop offset="0.82889" style="stop-color:#000000;stop-opacity:0"></stop> </radialGradient> <path class="highlight" fill="url(#ee5e7aa8-8705-4915-952e-461460ab8dfd)" d="M97.35805,105.3275c1.99919,0.12364,3.99117,0.35772,5.96954,0.66612 c0.10192,0.01591,0.20089,0.02596,0.30226,0.04077c0.27779-0.5982,1.10342-2.08331,1.30442-2.62473 c0.57243-1.15421,0.64095-2.30629-0.22633-3.23952c-1.01108-1.00503-1.8772-1.57839-3.1759-2.43795 c-0.24543-0.17084-0.69859-0.48278-1.18503-0.81721c-0.38547,1.1218-0.96982,2.21361-1.4137,2.95712 c0.21092,0.18321,0.41425,0.45313,0.39115,0.89442c-0.02598,0.49569-0.32156,0.98902-0.48627,1.35419 C98.60549,102.65736,97.99474,103.96246,97.35805,105.3275z" transform="translate(459.271567 -118.97194)" stroke-width="0" stroke-linejoin="miter" stroke-miterlimit="2" opacity="0.63"></path> <radialGradient id="12c5b6a4-56df-4fa7-9873-6814f302405d" cx="108.93509" cy="104.00256" r="21.10507" gradientUnits="userSpaceOnUse" transform="translate(459.271567 -118.97194)"> <stop offset="0" style="stop-color:#000000;stop-opacity:0"></stop> <stop offset="0.66806" style="stop-color:#000000;stop-opacity:0"></stop> <stop offset="0.81784" style="stop-color:#000000"></stop> </radialGradient> <path class="highlight" fill="url(#12c5b6a4-56df-4fa7-9873-6814f302405d)" d="M98.90868,99.84107c0.21954-0.36945,0.39166-0.87555,0.52283-1.17419 c0.27789-0.63275,0.4762-1.27905,0.66956-1.93561c-0.26324-0.18219-0.52649-0.36432-0.76831-0.53168 c-0.3017-0.20886-1.16473-1.01825-1.48492-1.50073c-0.2168-0.35986-0.33887-0.51355-0.41113-1.08972 c-0.07129-0.64795,0.21527-1.02539,0.44757-1.03674c-1.53284-0.22101-2.61121,1.89923-2.13245,3.86737 c0.92877,2.36133,2.67896,3.05145,2.99146,3.27264C98.7951,99.74909,98.85223,99.79395,98.90868,99.84107z" transform="translate(459.271567 -118.97194)" stroke-width="0" stroke-linejoin="miter" stroke-miterlimit="2" opacity="0.63"></path> <linearGradient id="327ef2b3-6c15-4ca3-af64-82a41fdb55ff" gradientUnits="userSpaceOnUse" x1="81.02407" y1="122.77176" x2="97.54999" y2="99.97018"> <stop offset="0.21023" style="stop-color:#000000"></stop> <stop offset="0.43527" style="stop-color:#000000;stop-opacity:0.68377"></stop> <stop offset="0.92184" style="stop-color:#000000;stop-opacity:0"></stop> </linearGradient> <path class="highlight" fill="url(#327ef2b3-6c15-4ca3-af64-82a41fdb55ff)" d="M98.02046,96.35936c-0.33088,0.67867-1.06397,2.03134-1.0622,2.03323 c-0.76221,1.76324-2.21143,4.13092-3.30322,5.87549c-0.30206,0.48267-0.63623,0.96173-0.74457,1.13733 c-0.07544,0.13892-0.11456,0.21246-0.25769,0.32007c-0.02234,0.05786-0.08954,0.0238-0.13013,0.04468 c-0.00305,0.00159-0.01874,0.03564-0.0235,0.04285c-0.05591,0.08002-0.18262,0.25708-0.31738,0.46283 c-0.56848,0.86768-1.83649,2.70483-2.98602,3.76996c-0.14355,0.28809-0.21198,1.96234,1.03156,1.96234 c0.78076,0,1.50452-1.03448,2.5036-2.43372c1.7113-2.39673,3.80225-6.06702,5.70441-8.91284 c0.04462-0.06675,0.26001-0.38384,0.50686-0.80432c0.33028-0.56259,0.71932-1.28528,0.85461-1.60125 C99.54383,98.05312,98.29558,96.75417,98.02046,96.35936z" transform="translate(459.271567 -118.97194)" stroke-width="0" stroke-linejoin="miter" stroke-miterlimit="2" opacity="0.63"></path> </g>
        <g id="path133659" aria-label="s" transform="translate(0 337.82548633) translate(625.10856044 33.337067299999994) scale(2.22) translate(-564.72875 26.443935)"> <path class="c1" d="M99.85565,103.7715c-0.06195-0.08844-0.12061-0.1745-0.18457-0.26422 c-0.59406-0.83331-1.10321-1.5307-1.52704-2.16211c0.95795-0.47986,2.24933-1.47485,2.66687-1.92969 c1.18817-1.29425,1.45123-2.61755,1.59033-3.56372c0.18652-1.26831-1.67365-2.70966-2.03302-2.8537 c-1.08008-0.57617-2.81696-0.59851-3.53668-0.16638c-1.7251,1.17633-2.64032,3.08405-2.62836,4.83752 c0.01233,1.80957,0.664,3.24646,1.52063,4.89264c0.4635,0.89069,1.12067,1.91339,1.30341,2.36658 c0.02722,0.0675,0.0481,0.1239,0.07428,0.18958c-0.24591,0.13184-0.49377,0.26807-0.7431,0.40674 c-0.0459,0.0257-0.10223,0.0545-0.14667,0.07977c0.00012,0.00018,0.00031,0.00067,0.00043,0.00085 c-1.83154,1.02423-3.66541,2.1535-4.56616,2.57733c-0.36035,0.14453-0.43164,0.50391-0.64844,0.50391 c-0.21582,0-0.43164,0.14453-0.5752,0.28809c-0.36035,0.36035-0.93976,0.67932-2.43488,2.14508 c-1.75195,1.71765-2.24481,3.31348-2.24481,4.75391c0,2.0166,2.0166,3.81641,6.12012,3.81641 c3.52832,0,6.55273-0.71973,8.85742-2.66406c0.14355-0.07227,0.21582-0.28809,0.35938-0.43262 c0.07227-0.07129,0.2168,0,0.28809-0.07129c0.07227-0.07227,0.07227-0.2168,0.14453-0.36035 c0.07227-0.07227,0.21582-0.14453,0.28809-0.21582c0.07129-0.14453,0.07129-0.2168,0.14355-0.36035 c0.07227-0.07227,0.21582-0.14355,0.28809-0.21582c0.21582-0.28809,1.22461-1.87207,1.08008-3.88867 c-0.1109-1.72491-0.60895-3.10522-1.5274-4.70679c-0.00989-0.01727-0.24524-0.42633-0.63416-1.04822 c3.36224-1.85638,7.35657-4.12238,7.70648-4.25378c0.07129-0.07178,0.35938-0.07178,0.43164-0.14404 c0-0.14404,0.07227-0.14404,0.21582-0.14404c0.2168-0.07178,0.43262-0.21582,0.64844-0.28809h0.50391 c0.07227-0.07178,0.14453-0.14404,0.21582-0.21582c0.36035-0.21582,2.23242-0.86426,2.44824-0.93604 c0.28809,0,0.28809,0.07178,0.43262-0.21631c0.07129-0.21582,0.14355-0.21582,0.35938-0.2876c0,0,0.14453-0.21631,0.14453-0.28809 c-0.07227-0.57617-1.86011-0.05621-2.60388,0.16565c-3.0116,0.89813-4.58197,1.62268-5.87787,2.12659 C103.97778,101.93916,101.80774,102.8647,99.85565,103.7715z M97.08167,97.46407c0.35107-1.15259,1.20667-2.52161,2.34167-2.61627 c0.43262-0.07178,0.43262,0.43213,0.36035,0.72021c-0.15637,0.46948-0.57324,1.24597-1.41199,2.09259 c-0.31128,0.31421-0.85876,0.63806-1.41467,0.87775C96.94055,98.1899,96.96777,97.83797,97.08167,97.46407z M98.19971,110.1852 c-0.21582,1.51172-0.9848,2.90814-2.16016,4.24805c-1.50793,1.71912-2.6792,2.17468-4.76709,2.31824 c-1.80078,0.14453-2.56354-0.42731-2.5979-0.94263c-0.14172-2.12537,3.45197-4.58722,4.38104-5.33148 c1.35498-1.08539,2.68835-1.8689,3.88416-2.50806c0.24835-0.11652,0.59033-0.28973,0.99347-0.50037 C98.23822,108.54823,98.30518,109.33876,98.19971,110.1852z" transform="translate(478.98608 -118.977371)" stroke-width="0" stroke-linejoin="miter" stroke-miterlimit="2" fill="#e63b0e" stroke="#e63b0e"></path> <linearGradient id="4f65b7ac-af12-4428-8fb7-74bcde46e8ee" gradientUnits="userSpaceOnUse" x1="91.08774" y1="102.67667" x2="103.15181" y2="94.6003"> <stop offset="0.3682" style="stop-color:#000000"></stop> <stop offset="0.50289" style="stop-color:#000000;stop-opacity:0.68377"></stop> <stop offset="0.79414" style="stop-color:#000000;stop-opacity:0"></stop> </linearGradient> <path class="highlight" fill="url(#4f65b7ac-af12-4428-8fb7-74bcde46e8ee)" d="M96.95703,98.53835c0.04187,0.88293,0.47345,1.74377,1.18701,2.80676 c0.95789-0.47986,2.24933-1.47485,2.66687-1.92969c1.18817-1.29425,1.45123-2.61755,1.59033-3.56366 c0.18652-1.26831-1.67365-2.70966-2.03302-2.8537c-0.21503,0.63269-0.51227,2.28186-0.58453,2.56995 c-0.15637,0.46942-0.57324,1.24591-1.41199,2.09259C98.06042,97.97482,97.51294,98.29867,96.95703,98.53835z" transform="translate(478.98608 -118.977371)" stroke-width="0" stroke-linejoin="miter" stroke-miterlimit="2" opacity="0.63"></path> <radialGradient id="324329df-a7fb-4d72-a18f-32ee17aa3f89" cx="104.52267" cy="115.82958" r="26.93802" gradientUnits="userSpaceOnUse" transform="translate(478.98608 -118.977371)"> <stop offset="0" style="stop-color:#000000;stop-opacity:0"></stop> <stop offset="0.63258" style="stop-color:#000000;stop-opacity:0"></stop> <stop offset="0.93384" style="stop-color:#000000"></stop> </radialGradient> <path class="highlight" fill="url(#324329df-a7fb-4d72-a18f-32ee17aa3f89)" d="M96.54041,104.01418c0.24957-0.14056,0.49725-0.28265,0.74414-0.41437 c0.59546-0.31775,1.20331-0.6026,1.79913-0.91101c-1.62109-2.25366-2.5163-3.53668-2.00201-5.22473 c0.33453-1.09827,1.12714-2.39307,2.18311-2.59454c0.16711-0.03192,0.28937-0.03973,0.37079-0.00122 c-1.10248-1.36346-4.70392-0.71753-5.42493,2.67395c-0.00079,0.04211-0.00775,0.08496-0.00745,0.12689 c0.01233,1.80963,0.664,3.24652,1.52063,4.89264C95.97644,103.04726,96.28088,103.56393,96.54041,104.01418z" transform="translate(478.98608 -118.977371)" stroke-width="0" stroke-linejoin="miter" stroke-miterlimit="2" opacity="0.63"></path> <radialGradient id="eb1bcadc-7a46-4f08-b9ee-cb3c4371f030" cx="110.97673" cy="100.52072" r="32.9356" gradientUnits="userSpaceOnUse" transform="translate(478.98608 -118.977371)"> <stop offset="0" style="stop-color:#000000;stop-opacity:0"></stop> <stop offset="0.63311" style="stop-color:#000000;stop-opacity:0"></stop> <stop offset="0.94238" style="stop-color:#000000"></stop> </radialGradient> <path class="highlight" fill="url(#eb1bcadc-7a46-4f08-b9ee-cb3c4371f030)" d="M93.85803,116.18984l0.00018-0.00067c-0.73834,0.3418-1.54877,0.49103-2.58575,0.56232 c-1.80078,0.14453-2.56354-0.42737-2.5979-0.94263c-0.14172-2.12543,3.45197-4.58722,4.38104-5.33148 c1.74371-1.39679,3.44983-2.29437,4.87329-3.02509c-0.18353-0.64594-0.45612-1.4035-0.82739-2.33429 c-2.10004,1.12579-4.40802,2.57184-5.45551,3.0647c-0.36035,0.14453-0.43164,0.50391-0.64844,0.50391 c-0.21582,0-0.43164,0.14453-0.5752,0.28809c-0.36035,0.36035-0.93976,0.67926-2.43488,2.14508 c-1.14929,1.12677-1.75024,2.19989-2.03217,3.2124C85.52124,117.70657,90.21887,118.45303,93.85803,116.18984z" transform="translate(478.98608 -118.977371)" stroke-width="0" stroke-linejoin="miter" stroke-miterlimit="2" opacity="0.63"></path> <linearGradient id="4eb90d19-226e-49c4-a25c-62fedf02a1c1" gradientUnits="userSpaceOnUse" x1="95.48473" y1="98.89608" x2="103.07657" y2="111.81445"> <stop offset="0.06869" style="stop-color:#000000;stop-opacity:0"></stop> <stop offset="0.19295" style="stop-color:#000000;stop-opacity:0.2915"></stop> <stop offset="0.38842" style="stop-color:#000000;stop-opacity:0.75005"></stop> <stop offset="0.49497" style="stop-color:#000000"></stop> <stop offset="0.5762" style="stop-color:#000000;stop-opacity:0.83916"></stop> <stop offset="0.69957" style="stop-color:#000000;stop-opacity:0.59488"></stop> <stop offset="0.83424" style="stop-color:#000000;stop-opacity:0.32822"></stop> <stop offset="1" style="stop-color:#000000;stop-opacity:0"></stop> </linearGradient> <path class="highlight" fill="url(#4eb90d19-226e-49c4-a25c-62fedf02a1c1)" d="M99.67108,103.50729c-1.79333-2.51569-2.89075-3.88342-2.67334-5.50812 c-0.87494-0.39044-1.81799-0.67139-2.74518-0.9455c-0.0293,0.20605-0.05078,0.41162-0.04938,0.61548 c0.01233,1.80963,0.664,3.24652,1.52063,4.89264c0.4635,0.89075,1.12067,1.91339,1.30341,2.36664 c0.02753,0.06818,0.04865,0.12524,0.07507,0.19159c0.8028-0.42194,1.74994-0.88239,2.75336-1.34851 C99.7937,103.68307,99.73505,103.59701,99.67108,103.50729z" transform="translate(478.98608 -118.977371)" stroke-width="0" stroke-linejoin="miter" stroke-miterlimit="2" opacity="0.63"></path> <linearGradient id="c69b0d91-63b8-47da-9388-3594c246f15a" gradientUnits="userSpaceOnUse" x1="93.38765" y1="100.12849" x2="100.86153" y2="112.84615"> <stop offset="0.06869" style="stop-color:#000000;stop-opacity:0"></stop> <stop offset="0.21466" style="stop-color:#000000;stop-opacity:0.32045"></stop> <stop offset="0.33844" style="stop-color:#000000;stop-opacity:0.59221"></stop> <stop offset="0.45373" style="stop-color:#000000;stop-opacity:0.84531"></stop> <stop offset="0.52419" style="stop-color:#000000"></stop> <stop offset="0.6685" style="stop-color:#000000;stop-opacity:0.67358"></stop> <stop offset="0.84332" style="stop-color:#000000;stop-opacity:0.27812"></stop> <stop offset="0.96628" style="stop-color:#000000;stop-opacity:0"></stop> </linearGradient> <path class="highlight" fill="url(#c69b0d91-63b8-47da-9388-3594c246f15a)" d="M98.19971,110.1852c-0.16718,1.17096-0.6734,2.27167-1.4361,3.33154 c0.47388,0.57825,0.85944,1.22803,1.3772,1.77795c0.67517,0.71716,1.4397,1.37354,2.16797,2.03967 c0.13672-0.10345,0.27942-0.19696,0.41144-0.30835c0.14355-0.07227,0.21582-0.28809,0.35938-0.43262 c0.07227-0.07129,0.2168,0,0.28809-0.07129c0.07227-0.07227,0.07227-0.2168,0.14453-0.36035 c0.07227-0.07227,0.21582-0.14453,0.28809-0.21582c0.07129-0.14453,0.07129-0.2168,0.14355-0.36035 c0.07227-0.07227,0.21582-0.14355,0.28809-0.21582c0.21582-0.28809,1.22461-1.87207,1.08008-3.88867 c-0.1109-1.72491-0.60895-3.10529-1.5274-4.70685c-0.00989-0.01727-0.24524-0.42633-0.63416-1.04822 c-1.22839,0.67822-2.36774,1.29913-3.21722,1.74292C98.23822,108.5483,98.30518,109.33871,98.19971,110.1852z" transform="translate(478.98608 -118.977371)" stroke-width="0" stroke-linejoin="miter" stroke-miterlimit="2" opacity="0.63"></path> </g>
        <g id="path133661" aria-label="e" transform="translate(0 337.82548633) translate(670.7676778400003 38.33636299999999) scale(2.22) translate(-585.29592 24.192)"> <path class="c1" d="M92.4241,105.21693c-0.93555,2.37646-1.58398,4.96826-1.36816,7.56006 c0,4.17676,2.80859,6.625,6.26465,6.625c1.15192,0,3.28119-0.35712,5.81122-2.68658c0.25952-0.22662,0.5152-0.4577,0.76678-0.69318 c0.10327-0.09668,0.17914-0.19885,0.2699-0.30267c0.11566-0.1322,0.27753-0.24207,0.41272-0.35394 c0.19501-0.15668,0.41321-0.32703,0.57391-0.52173c0.07721-0.0929,0.13727-0.20288,0.14587-0.32678 c0.07361,0.00488,0.14587-0.00702,0.21332-0.03284c0.17413-0.06891,0.24768-0.24945,0.33606-0.39752 c0.10419-0.1756,0.25995-0.13947,0.38501-0.2876c0.25153-0.29285,2.48395-1.99713,2.73157-3.54169 c0.09912-0.61829-0.17358-1.65649-1.33929-1.93402c-0.27167,0.72137-1.79071,2.54181-4.01196,4.58832 c-1.89575,1.74646-4.10406,3.78534-5.82965,3.71405c-2.42456-0.10022-2.60144-2.22675-2.40796-4.01294 c0.05853-0.54047,0.24457-1.25812,0.49255-2.026c1.31628-0.42072,3.69324-1.3385,6.11603-3.14563 c3.13092-2.33539,3.91394-3.67432,4.68604-6.01733c0.1817-0.55127,0.22504-1.60785,0.22504-2.18353 c0.07227-0.57617,0-0.93604-0.57617-1.36816c-0.36035-0.28809-2.52051-1.80029-3.0957-2.16016 c-0.7207-0.36035-1.36816-0.93604-2.23242-0.93604c-0.93652,0-1.87207,0.79199-2.44824,1.36768 C95.88113,98.52016,93.64871,101.83266,92.4241,105.21693z M105.09793,99.45619c0.21582,0.21582-0.117,0.9339-0.26154,1.29376 c-0.84662,1.55341-3.24084,3.93329-5.55597,5.13538c-0.62604,0.32501-1.20386,0.4989-1.73944,0.64667 c0.17566-0.3382,0.33185-0.60596,0.45129-0.76672C99.58084,103.62782,104.11624,98.71992,105.09793,99.45619z" transform="translate(494.281601 -118.96802)" stroke-width="0" stroke-linejoin="miter" stroke-miterlimit="2" fill="#e63b0e" stroke="#e63b0e"></path> <linearGradient id="0004e982-5320-478d-89b8-95f550cedbe5" gradientUnits="userSpaceOnUse" x1="91.21967" y1="104.33775" x2="109.11127" y2="107.11261"> <stop offset="0.19621" style="stop-color:#000000"></stop> <stop offset="0.61474" style="stop-color:#000000;stop-opacity:0.22835"></stop> <stop offset="0.7386" style="stop-color:#000000;stop-opacity:0"></stop> </linearGradient> <path class="highlight" fill="url(#0004e982-5320-478d-89b8-95f550cedbe5)" d="M106.55647,101.3818c-0.60242-0.21936-1.18817-0.4118-1.82452-0.46521 c-0.91711,1.55261-3.21454,3.80719-5.45154,4.96875c-0.62604,0.32501-1.20386,0.4989-1.73944,0.64667 c-0.51666,0.99463-1.20514,2.61444-1.67035,4.05487c1.31635-0.42072,3.69324-1.3385,6.11603-3.14563 c3.13098-2.33539,3.91394-3.67432,4.6861-6.01733c0.00024-0.00067,0.00031-0.00177,0.00055-0.00244 C106.63466,101.4078,106.59444,101.39565,106.55647,101.3818z" transform="translate(494.281601 -118.96802)" stroke-width="0" stroke-linejoin="miter" stroke-miterlimit="2" opacity="0.63"></path> <radialGradient id="03dbf3ba-f1b7-4d03-8ae3-6a87ce5522f8" cx="111.7691" cy="100.63885" r="27.83636" gradientUnits="userSpaceOnUse" transform="translate(494.281601 -118.96802)"> <stop offset="0" style="stop-color:#000000;stop-opacity:0"></stop> <stop offset="0.61314" style="stop-color:#000000;stop-opacity:0"></stop> <stop offset="0.94587" style="stop-color:#000000"></stop> </radialGradient> <path class="highlight" fill="url(#03dbf3ba-f1b7-4d03-8ae3-6a87ce5522f8)" d="M95.37807,112.61282c0.20575-1.89886,1.95612-5.96204,2.6142-6.84753 c0.53534-0.72028,1.40735-1.75488,2.36322-2.78241c-1.81189-0.72107-3.85223-1.36401-5.67474-2.26282 c-0.92255,1.43109-1.6983,2.9541-2.25659,4.49689c-0.71106,1.80615-1.25366,3.73688-1.37964,5.6972 c0.14209,7.66418,5.9519,7.68298,9.77856,4.4007l0.00079-0.00702c-1.06921,0.79211-2.12177,1.35583-3.03784,1.31799 C95.36153,116.5256,95.18459,114.39907,95.37807,112.61282z" transform="translate(494.281601 -118.96802)" stroke-width="0" stroke-linejoin="miter" stroke-miterlimit="2" opacity="0.63"></path> <linearGradient id="302fbcf2-37e8-4785-a835-4a833cd124ed" gradientUnits="userSpaceOnUse" x1="116.63695" y1="99.15231" x2="100.5349" y2="116.23393"> <stop offset="0.28222" style="stop-color:#000000"></stop> <stop offset="0.48449" style="stop-color:#000000;stop-opacity:0.68377"></stop> <stop offset="0.92184" style="stop-color:#000000;stop-opacity:0"></stop> </linearGradient> <path class="highlight" fill="url(#302fbcf2-37e8-4785-a835-4a833cd124ed)" d="M107.62764,108.32345c-0.27167,0.72137-1.79071,2.54175-4.01196,4.58826 c-1.89569,1.74652-4.10406,3.7854-5.82965,3.71411c-0.38397-0.01587-0.69397-0.09729-0.97266-0.20538 c-0.40759,0.92529-0.83368,1.84131-1.2865,2.7439c0.56879,0.15521,1.1701,0.23767,1.79376,0.23767 c1.15192,0,3.28113-0.35718,5.81116-2.68665c0.25952-0.22662,0.5152-0.4577,0.76678-0.69318 c0.10327-0.09668,0.17914-0.19885,0.2699-0.30267c0.11566-0.1322,0.27753-0.24207,0.41272-0.35394 c0.19501-0.15668,0.41321-0.32703,0.57391-0.52173c0.07721-0.0929,0.13727-0.20288,0.14587-0.32678 c0.07361,0.00488,0.14587-0.00702,0.21332-0.03284c0.17413-0.06891,0.24768-0.24945,0.33606-0.39752 c0.10419-0.1756,0.25995-0.13947,0.38501-0.2876c0.25153-0.29285,2.48395-1.99707,2.73157-3.54163 C109.06606,109.63918,108.79335,108.60098,107.62764,108.32345z" transform="translate(494.281601 -118.96802)" stroke-width="0" stroke-linejoin="miter" stroke-miterlimit="2" opacity="0.63"></path> </g>
               </g>
      <image xlink:href="https://app.brandmark.io/nounpreview/29028.png" id="icon" style="display: none;" x="0" y="0"></image>
    </g>
  </g>
</svg>